<svg width="16" height="16" viewBox="0 0 16 16" fill="none" xmlns="http://www.w3.org/2000/svg">
<path fill-rule="evenodd" clip-rule="evenodd" d="M3.2 0.777344H12.8C14.5673 0.777344 16 2.09316 16 3.7163V9.5942C16 11.2173 14.5673 12.5332 12.8 12.5332H4.8C4.15884 12.5219 3.53946 12.7468 3.08 13.1577L0.68 15.3619C0.606662 15.4318 0.505695 15.4715 0.4 15.4721C0.179086 15.4721 0 15.3076 0 15.1047V3.7163C0 2.09316 1.43269 0.777344 3.2 0.777344ZM14.4 3.7163C14.4 2.90473 13.6837 2.24683 12.8 2.24683H3.2C2.31635 2.24683 1.60001 2.90473 1.60001 3.7163V12.445L1.96801 12.1364C2.71961 11.4479 3.73841 11.062 4.8 11.0637H12.8C13.6837 11.0637 14.4 10.4058 14.4 9.59422V3.7163Z" fill="#7B7B7B"/>
</svg>
