<svg width="18" height="17" viewBox="0 0 18 17" fill="none" xmlns="http://www.w3.org/2000/svg">
<path fill-rule="evenodd" clip-rule="evenodd" d="M8.9003 0.78125C3.9848 0.78125 0 4.40774 0 8.88125C0 13.3548 3.9848 16.9813 8.9003 16.9813C13.8158 16.9813 17.8006 13.3548 17.8006 8.88125C17.8006 6.733 16.8629 4.67273 15.1938 3.15369C13.5246 1.63464 11.2608 0.78125 8.9003 0.78125ZM16.0204 8.88147C15.0011 8.60293 13.9428 8.46103 12.8786 8.46023C12.2454 8.46793 11.6142 8.52484 10.9917 8.63035C10.7692 8.1362 10.5378 7.65826 10.2886 7.18031C11.7523 6.51468 13.087 5.63638 14.2403 4.57996C15.3955 5.7653 16.0294 7.29702 16.0204 8.88147ZM9.67458 6.11102C10.9952 5.50817 12.1979 4.71192 13.2347 3.75409C11.9931 2.88091 10.4694 2.40541 8.90026 2.40149C8.32413 2.4036 7.75038 2.46887 7.19141 2.59588C8.11973 3.70615 8.95005 4.88153 9.67458 6.11102ZM5.89211 3.01685C6.85673 4.14922 7.71705 5.35209 8.46431 6.61321C6.901 7.16878 5.23848 7.4571 3.56022 7.4637C3.03378 7.45848 2.50797 7.42874 1.98486 7.37461C2.49059 5.45652 3.92878 3.85251 5.89211 3.01685ZM1.77979 8.57343V8.88123C1.78391 10.4795 2.43689 12.02 3.61324 13.2067C4.99814 11.157 7.15598 9.63662 9.68324 8.92983C9.49634 8.50864 9.28274 8.10364 9.06914 7.69864L9.06912 7.69861C7.31789 8.34121 5.44805 8.67386 3.55984 8.67873C2.96468 8.67685 2.37021 8.64168 1.77979 8.57343ZM4.61035 14.0407C5.83119 12.118 7.81573 10.6947 10.1552 10.0637C10.781 11.6375 11.2255 13.2662 11.4814 14.9236C9.18074 15.7473 6.57426 15.4154 4.61035 14.0488V14.0407ZM11.4722 9.78848C12.0402 11.2661 12.4631 12.7866 12.736 14.3322C14.3702 13.3825 15.5081 11.8673 15.8867 10.1367C14.9166 9.84266 13.9009 9.69226 12.8784 9.69128C12.4078 9.69517 11.938 9.72764 11.4722 9.78848Z" fill="#7B7B7B"/>
</svg>
