<svg width="9" height="17" viewBox="0 0 9 17" fill="none" xmlns="http://www.w3.org/2000/svg">
<path d="M8.398 3.2293H5.746C5.25778 3.2293 4.862 3.63224 4.862 4.1293V6.8293H8.398C8.49854 6.82703 8.5939 6.87465 8.65368 6.95699C8.71345 7.03932 8.73019 7.14611 8.69856 7.2433L8.0444 9.2233C7.98412 9.40502 7.81732 9.52787 7.62892 9.5293H4.862V16.2793C4.862 16.5278 4.66411 16.7293 4.42 16.7293H2.21C1.96589 16.7293 1.768 16.5278 1.768 16.2793V9.5293H0.442C0.19789 9.5293 0 9.32783 0 9.0793V7.2793C0 7.03077 0.19789 6.8293 0.442 6.8293H1.768V4.1293C1.768 2.14107 3.35112 0.529297 5.304 0.529297H8.398C8.64211 0.529297 8.84 0.730769 8.84 0.979297V2.7793C8.84 3.02783 8.64211 3.2293 8.398 3.2293Z" fill="#7B7B7B"/>
</svg>
