<svg width="18" height="17" viewBox="0 0 18 17" fill="none" xmlns="http://www.w3.org/2000/svg">
<path fill-rule="evenodd" clip-rule="evenodd" d="M0 2.60318C0 1.55057 0.89543 0.697266 2 0.697266C2.53043 0.697266 3.03914 0.898067 3.41421 1.2555C3.78929 1.61293 4 2.0977 4 2.60318C4 3.65579 3.10457 4.5091 2 4.5091C0.89543 4.5091 0 3.65579 0 2.60318ZM17.5 10.6173C17.5345 8.55404 16.0574 6.74602 13.95 6.2718C12.5377 5.98201 11.0657 6.36202 10 7.29147V6.89123C10 6.62808 9.77614 6.41475 9.5 6.41475H7C6.72386 6.41475 6.5 6.62808 6.5 6.89123V16.4208C6.5 16.684 6.72386 16.8973 7 16.8973H9.5C9.77614 16.8973 10 16.684 10 16.4208V11.0461C9.9753 10.0891 10.6752 9.2533 11.66 9.06397C12.2463 8.96752 12.8473 9.12487 13.2996 9.49329C13.752 9.8617 14.0087 10.4029 14 10.9699V16.4208C14 16.684 14.2239 16.8973 14.5 16.8973H17C17.2761 16.8973 17.5 16.684 17.5 16.4208V10.6173ZM4 6.89139V16.4208C4 16.6839 3.77614 16.8972 3.5 16.8972H1C0.723858 16.8972 0.5 16.6839 0.5 16.4208V6.89139C0.5 6.62824 0.723858 6.41492 1 6.41492H3.5C3.77614 6.41492 4 6.62824 4 6.89139Z" fill="#7B7B7B"/>
</svg>
