<svg width="20" height="21" viewBox="0 0 20 21" fill="none" xmlns="http://www.w3.org/2000/svg">
<path d="M15.5541 20.3708C13.7167 20.3692 11.9081 19.9169 10.2879 19.0537L9.78795 18.7771C6.33356 16.9269 3.50154 14.1057 1.64429 10.6645L1.36654 10.1665C0.477536 8.5433 0.00791893 6.72526 6.98594e-07 4.87621V4.13468C-0.000468563 3.54473 0.23549 2.979 0.655493 2.56309L2.53309 0.692672C2.71543 0.509612 2.97283 0.421378 3.22964 0.453899C3.48646 0.48642 3.71351 0.636 3.84407 0.858685L6.34383 5.13076C6.59662 5.56559 6.52363 6.1155 6.16607 6.46994L4.06628 8.5617C3.8919 8.73351 3.85126 8.99891 3.96628 9.21469L4.35514 9.94515C5.75171 12.5222 7.8762 14.6347 10.4657 16.0212L11.1989 16.4197C11.4155 16.5343 11.6819 16.4938 11.8544 16.3201L13.9542 14.2283C14.31 13.8721 14.862 13.7994 15.2985 14.0512L19.587 16.5414C19.8105 16.6715 19.9607 16.8977 19.9933 17.1535C20.026 17.4093 19.9374 17.6657 19.7537 17.8474L17.8761 19.7178C17.4585 20.1362 16.8906 20.3713 16.2984 20.3708H15.5541Z" fill="#7B7B7B"/>
</svg>
