<svg width="19" height="17" viewBox="0 0 19 17" fill="none" xmlns="http://www.w3.org/2000/svg">
<path d="M18.796 2.96112C18.3103 3.61708 17.7232 4.18927 17.0574 4.65561C17.0574 4.82697 17.0574 4.99832 17.0574 5.17919C17.0628 8.29094 15.8351 11.2747 13.6498 13.4616C11.4644 15.6485 8.50415 16.8555 5.43257 16.8122C3.65683 16.8182 1.90382 16.4076 0.310872 15.6127C0.22498 15.5747 0.169581 15.4887 0.169907 15.3937V15.289C0.169907 15.1523 0.279301 15.0415 0.414245 15.0415C2.15976 14.9833 3.84301 14.3705 5.22583 13.2899C3.64589 13.2577 2.22435 12.31 1.57015 10.8529C1.53711 10.7733 1.5474 10.682 1.5973 10.612C1.64721 10.542 1.72952 10.5034 1.81449 10.5102C2.29467 10.559 2.77964 10.5138 3.24293 10.3769C1.49881 10.0103 0.188305 8.54428 0.000750257 6.74993C-0.00591569 6.66385 0.0321828 6.58047 0.101282 6.52992C0.170382 6.47937 0.260494 6.46894 0.339065 6.50242C0.807109 6.71152 1.31236 6.82166 1.82389 6.82608C0.295629 5.81047 -0.364477 3.87874 0.216895 2.1234C0.276907 1.95283 0.421084 1.82682 0.596444 1.79168C0.771805 1.75655 0.952481 1.81746 1.07208 1.95204C3.13437 4.17437 5.96799 5.49865 8.97548 5.64565C8.89844 5.33441 8.86055 5.01456 8.8627 4.69369C8.89083 3.01122 9.91899 1.51245 11.4658 0.899031C13.0127 0.285616 14.7721 0.678965 15.9203 1.89493C16.703 1.74395 17.4597 1.47775 18.1663 1.1048C18.2181 1.07208 18.2837 1.07208 18.3355 1.1048C18.3678 1.15723 18.3678 1.22372 18.3355 1.27615C17.9932 2.06971 17.415 2.73529 16.6815 3.18007C17.3239 3.10465 17.9549 2.95124 18.561 2.72313C18.6121 2.68796 18.6792 2.68796 18.7302 2.72313C18.773 2.74294 18.8049 2.78081 18.8176 2.82667C18.8303 2.87252 18.8224 2.92171 18.796 2.96112Z" fill="#7B7B7B"/>
</svg>
