<svg width="20" height="21" fill="none" xmlns="http://www.w3.org/2000/svg"><path d="M15.554 20.37a11.221 11.221 0 01-5.266-1.316l-.5-.277a19.96 19.96 0 01-8.144-8.113l-.277-.498A11.111 11.111 0 010 4.876v-.741c0-.59.235-1.156.655-1.572L2.533.693a.835.835 0 011.311.166l2.5 4.272c.253.435.18.984-.178 1.339l-2.1 2.092a.552.552 0 00-.1.653l.39.73a15.003 15.003 0 006.11 6.076l.733.399a.557.557 0 00.655-.1l2.1-2.092a1.114 1.114 0 011.345-.177l4.288 2.49a.83.83 0 01.167 1.306l-1.878 1.87a2.227 2.227 0 01-1.578.654h-.744z" fill="#7B7B7B"/></svg>