<svg width="18" height="17" fill="none" xmlns="http://www.w3.org/2000/svg"><path fill-rule="evenodd" clip-rule="evenodd" d="M8.9.781C3.985.781 0 4.408 0 8.881c0 4.474 3.985 8.1 8.9 8.1 4.916 0 8.9-3.626 8.9-8.1 0-2.148-.937-4.208-2.606-5.727C13.524 1.634 11.26.78 8.9.78zm7.12 8.1a11.962 11.962 0 00-3.141-.42 12.18 12.18 0 00-1.887.17 27.847 27.847 0 00-.703-1.45A15.099 15.099 0 0014.24 4.58c1.155 1.185 1.79 2.717 1.78 4.301zm-6.345-2.77c1.32-.603 2.523-1.4 3.56-2.357A7.59 7.59 0 008.9 2.401a7.846 7.846 0 00-1.709.195A26.29 26.29 0 019.675 6.11zM5.892 3.017a25.938 25.938 0 012.572 3.596 14.837 14.837 0 01-4.904.85 16.939 16.939 0 01-1.575-.088c.506-1.918 1.944-3.522 3.907-4.358zM1.78 8.573v.308c.004 1.598.657 3.139 1.833 4.326 1.385-2.05 3.543-3.57 6.07-4.277-.187-.421-.4-.826-.614-1.231a16.134 16.134 0 01-5.51.98 15.942 15.942 0 01-1.78-.106zm2.83 5.468c1.221-1.923 3.206-3.346 5.545-3.977a22.399 22.399 0 011.326 4.86c-2.3.823-4.907.491-6.87-.875v-.008zm6.862-4.253a24.597 24.597 0 011.264 4.544c1.634-.95 2.772-2.465 3.15-4.195a10.415 10.415 0 00-3.008-.446 11.6 11.6 0 00-1.406.097z" fill="#7B7B7B"/></svg>